<svg xmlns="http://www.w3.org/2000/svg" viewBox="0 0 100 100" width="75" height="75" shape-rendering="crispEdges">
  <!-- Trans flag bg -->
  <rect width="100" height="100" fill="#fff"/>
  <rect y="0"  width="100" height="20" fill="#55cdfc"/>
  <rect y="20" width="100" height="20" fill="#f7a8b8"/>
  <rect y="40" width="100" height="20" fill="#fff"/>
  <rect y="60" width="100" height="20" fill="#f7a8b8"/>
  <rect y="80" width="100" height="20" fill="#55cdfc"/>

  <!-- ══ BOW — angular diamond wings ══ -->
  <!-- left wing: diamond shape, pointed at left tip, straight on right -->
  <rect x="28" y="2"  width="14" height="20" fill="#191919"/>
  <rect x="20" y="4"  width="22" height="16" fill="#191919"/>
  <rect x="14" y="6"  width="28" height="12" fill="#191919"/>
  <rect x="8"  y="8"  width="34" height="8"  fill="#191919"/>
  <rect x="4"  y="10" width="38" height="4"  fill="#191919"/>
  <!-- left wing edge highlight lines -->
  <rect x="28" y="2"  width="14" height="2"  fill="#484848"/>
  <rect x="20" y="4"  width="8"  height="2"  fill="#484848"/>
  <rect x="28" y="20" width="14" height="2"  fill="#484848"/>
  <rect x="20" y="18" width="8"  height="2"  fill="#484848"/>
  <!-- left wing inner shine -->
  <rect x="22" y="7"  width="12" height="4"  fill="#383838"/>
  <rect x="24" y="7"  width="6"  height="3"  fill="#505050"/>

  <!-- right wing: mirror -->
  <rect x="58" y="2"  width="14" height="20" fill="#191919"/>
  <rect x="58" y="4"  width="22" height="16" fill="#191919"/>
  <rect x="58" y="6"  width="28" height="12" fill="#191919"/>
  <rect x="58" y="8"  width="34" height="8"  fill="#191919"/>
  <rect x="58" y="10" width="38" height="4"  fill="#191919"/>
  <!-- right wing edges -->
  <rect x="58" y="2"  width="14" height="2"  fill="#484848"/>
  <rect x="72" y="4"  width="8"  height="2"  fill="#484848"/>
  <rect x="58" y="20" width="14" height="2"  fill="#484848"/>
  <rect x="72" y="18" width="8"  height="2"  fill="#484848"/>
  <!-- right wing shine -->
  <rect x="66" y="7"  width="12" height="4"  fill="#383838"/>
  <rect x="70" y="7"  width="6"  height="3"  fill="#505050"/>

  <!-- center knot -->
  <rect x="41" y="5"  width="18" height="14" fill="#2e2e2e"/>
  <rect x="43" y="7"  width="14" height="10" fill="#404040"/>
  <rect x="46" y="9"  width="8"  height="6"  fill="#505050"/>
  <rect x="47" y="9"  width="4"  height="2"  fill="#686868"/>

  <!-- tails -->
  <rect x="36" y="20" width="10" height="8"  fill="#191919"/>
  <rect x="34" y="24" width="8"  height="4"  fill="#191919"/>
  <rect x="54" y="20" width="10" height="8"  fill="#191919"/>
  <rect x="58" y="24" width="8"  height="4"  fill="#191919"/>

  <!-- ══ HAIR BASE ══ -->
  <rect x="12" y="18" width="76" height="10" fill="#6b1414"/>
  <rect x="8"  y="24" width="84" height="8"  fill="#6b1414"/>
  <!-- sides -->
  <rect x="4"  y="30" width="16" height="68" fill="#6b1414"/>
  <rect x="80" y="30" width="16" height="68" fill="#6b1414"/>
  <!-- bangs base -->
  <rect x="10" y="30" width="80" height="18" fill="#6b1414"/>

  <!-- ══ HAIR MID TONE ══ -->
  <rect x="14" y="20" width="60" height="8"  fill="#8b2020"/>
  <rect x="10" y="26" width="80" height="6"  fill="#8b2020"/>
  <rect x="12" y="32" width="76" height="12" fill="#8b2020"/>
  <rect x="6"  y="36" width="8"  height="52" fill="#8b2020"/>
  <rect x="86" y="36" width="8"  height="52" fill="#8b2020"/>

  <!-- ══ HAIR HIGHLIGHT (2000s anime signature swoosh) ══ -->
  <!-- main shine band across crown -->
  <rect x="18" y="22" width="36" height="4"  fill="#cc4444"/>
  <rect x="20" y="26" width="28" height="3"  fill="#cc4444"/>
  <!-- hot spot / specular flash -->
  <rect x="22" y="22" width="16" height="3"  fill="#f0b0b0"/>
  <rect x="24" y="24" width="10" height="2"  fill="#fce0e0"/>
  <!-- secondary shine on side -->
  <rect x="58" y="24" width="12" height="3"  fill="#cc4444"/>
  <rect x="60" y="24" width="6"  height="2"  fill="#f0b0b0"/>

  <!-- ══ BANG HIGHLIGHTS ══ -->
  <rect x="14" y="32" width="50" height="6"  fill="#aa3030"/>
  <rect x="16" y="33" width="30" height="3"  fill="#cc4444"/>
  <rect x="18" y="33" width="14" height="2"  fill="#f0b0b0"/>
  <!-- wispy fringe -->
  <rect x="10" y="46" width="10" height="5"  fill="#6b1414"/>
  <rect x="24" y="48" width="7"  height="4"  fill="#6b1414"/>
  <rect x="40" y="50" width="6"  height="3"  fill="#6b1414"/>
  <rect x="54" y="50" width="6"  height="3"  fill="#6b1414"/>
  <rect x="69" y="48" width="7"  height="4"  fill="#6b1414"/>
  <rect x="80" y="46" width="10" height="5"  fill="#6b1414"/>

  <!-- ══ FACE (tapered toward chin) ══ -->
  <rect x="16" y="30" width="68" height="52" fill="#f5dcc8"/>
  <rect x="18" y="82" width="64" height="6"  fill="#f5dcc8"/>
  <rect x="22" y="88" width="56" height="4"  fill="#f5dcc8"/>
  <rect x="26" y="92" width="48" height="4"  fill="#f5dcc8"/>
  <rect x="30" y="96" width="40" height="2"  fill="#f5dcc8"/>
  <!-- subtle blush under eyes (era style: pinkish cheek wash) -->
  <rect x="16" y="74" width="18" height="6"  fill="#f0c0b0"/>
  <rect x="66" y="74" width="18" height="6"  fill="#f0c0b0"/>
  <!-- re-layer bangs -->
  <rect x="10" y="30" width="80" height="18" fill="#6b1414"/>
  <rect x="14" y="32" width="72" height="12" fill="#8b2020"/>
  <rect x="16" y="33" width="44" height="6"  fill="#aa3030"/>
  <rect x="18" y="33" width="20" height="3"  fill="#cc4444"/>
  <rect x="20" y="33" width="10" height="2"  fill="#f0b0b0"/>
  <rect x="10" y="46" width="10" height="5"  fill="#6b1414"/>
  <rect x="24" y="48" width="7"  height="4"  fill="#6b1414"/>
  <rect x="40" y="50" width="6"  height="3"  fill="#6b1414"/>
  <rect x="54" y="50" width="6"  height="3"  fill="#6b1414"/>
  <rect x="69" y="48" width="7"  height="4"  fill="#6b1414"/>
  <rect x="80" y="46" width="10" height="5"  fill="#6b1414"/>

  <!-- ══ 2000s ANIME EYES ══ -->
  <!-- LEFT eye (x=14–46) -->
  <!-- upper lash — thick, extends past iris (era signature) -->
  <rect x="12" y="53" width="36" height="5"  fill="#191919"/>
  <rect x="12" y="58" width="8"  height="4"  fill="#191919"/>
  <!-- eyelid shadow (purple tint, very 2000s) -->
  <rect x="16" y="58" width="28" height="3"  fill="#7060a0"/>
  <!-- iris outer dark ring -->
  <rect x="16" y="57" width="28" height="20" fill="#203848"/>
  <!-- iris shadow top (under lash) -->
  <rect x="18" y="59" width="24" height="5"  fill="#2a5070"/>
  <!-- iris main colour -->
  <rect x="18" y="64" width="24" height="8"  fill="#6aaec8"/>
  <!-- iris bottom highlight (lighter, era style) -->
  <rect x="18" y="72" width="24" height="3"  fill="#a8d8ec"/>
  <!-- pupil -->
  <rect x="22" y="58" width="16" height="20" fill="#0a1420"/>
  <!-- BIG teardrop catchlight (top-right, era signature) -->
  <rect x="30" y="58" width="10" height="8"  fill="#ffffff"/>
  <rect x="32" y="66" width="6"  height="3"  fill="#e0f2fc"/>
  <!-- tiny secondary catchlight (bottom left) -->
  <rect x="18" y="74" width="4"  height="3"  fill="#ffffff"/>
  <!-- lower lash -->
  <rect x="16" y="76" width="28" height="2"  fill="#191919"/>
  <!-- lower lash ticks (era detail) -->
  <rect x="18" y="78" width="2"  height="2"  fill="#191919"/>
  <rect x="24" y="78" width="2"  height="2"  fill="#191919"/>
  <rect x="30" y="78" width="2"  height="2"  fill="#191919"/>
  <rect x="36" y="78" width="2"  height="2"  fill="#191919"/>

  <!-- RIGHT eye (x=54–86) -->
  <rect x="52" y="53" width="36" height="5"  fill="#191919"/>
  <rect x="80" y="58" width="8"  height="4"  fill="#191919"/>
  <rect x="56" y="58" width="28" height="3"  fill="#7060a0"/>
  <rect x="56" y="57" width="28" height="20" fill="#203848"/>
  <rect x="58" y="59" width="24" height="5"  fill="#2a5070"/>
  <rect x="58" y="64" width="24" height="8"  fill="#6aaec8"/>
  <rect x="58" y="72" width="24" height="3"  fill="#a8d8ec"/>
  <rect x="62" y="58" width="16" height="20" fill="#0a1420"/>
  <rect x="68" y="58" width="10" height="8"  fill="#ffffff"/>
  <rect x="70" y="66" width="6"  height="3"  fill="#e0f2fc"/>
  <rect x="76" y="74" width="4"  height="3"  fill="#ffffff"/>
  <rect x="56" y="76" width="28" height="2"  fill="#191919"/>
  <rect x="58" y="78" width="2"  height="2"  fill="#191919"/>
  <rect x="64" y="78" width="2"  height="2"  fill="#191919"/>
  <rect x="70" y="78" width="2"  height="2"  fill="#191919"/>
  <rect x="76" y="78" width="2"  height="2"  fill="#191919"/>

  <!-- ══ SPARKLE ACCENTS (era must-have) ══ -->
  <!-- top left -->
  <rect x="8"  y="54" width="2"  height="2"  fill="#ffffff"/>
  <rect x="7"  y="55" width="4"  height="0"  fill="#ffffff"/>
  <rect x="9"  y="53" width="0"  height="4"  fill="#ffffff"/>
  <!-- top right -->
  <rect x="90" y="56" width="2"  height="2"  fill="#ffffff"/>
  <rect x="89" y="57" width="4"  height="0"  fill="#ffffff"/>

  <!-- ══ MOUTH ══ -->
  <rect x="38" y="88" width="24" height="3"  fill="#c08888"/>
  <rect x="40" y="91" width="20" height="2"  fill="#a07070"/>

  <!-- ══ STRIPE TOP ══ -->
  <rect x="0"  y="95" width="100" height="3" fill="#1a3fa0"/>
  <rect x="0"  y="98" width="100" height="2" fill="#0d1a40"/>

  <!-- border -->
  <rect x="0"  y="0"  width="100" height="2" fill="#444"/>
  <rect x="0"  y="98" width="100" height="2" fill="#444"/>
  <rect x="0"  y="0"  width="2"  height="100" fill="#444"/>
  <rect x="98" y="0"  width="2"  height="100" fill="#444"/>
</svg>
