<svg xmlns="http://www.w3.org/2000/svg" viewBox="0 0 20 20" width="20" height="20">
  <!-- 5 pointed petals rotated around center (10,10) -->
  <path d="M 10 1.5 C 13 2.5 13.5 6 10 9 C 6.5 6 7 2.5 10 1.5 Z"
        fill="#ff91ac" stroke="#c8245a" stroke-width="0.35" transform="rotate(0   10 10)"/>
  <path d="M 10 1.5 C 13 2.5 13.5 6 10 9 C 6.5 6 7 2.5 10 1.5 Z"
        fill="#ff91ac" stroke="#c8245a" stroke-width="0.35" transform="rotate(72  10 10)"/>
  <path d="M 10 1.5 C 13 2.5 13.5 6 10 9 C 6.5 6 7 2.5 10 1.5 Z"
        fill="#ff91ac" stroke="#c8245a" stroke-width="0.35" transform="rotate(144 10 10)"/>
  <path d="M 10 1.5 C 13 2.5 13.5 6 10 9 C 6.5 6 7 2.5 10 1.5 Z"
        fill="#ff91ac" stroke="#c8245a" stroke-width="0.35" transform="rotate(216 10 10)"/>
  <path d="M 10 1.5 C 13 2.5 13.5 6 10 9 C 6.5 6 7 2.5 10 1.5 Z"
        fill="#ff91ac" stroke="#c8245a" stroke-width="0.35" transform="rotate(288 10 10)"/>
  <!-- center -->
  <circle cx="10" cy="10" r="2.5" fill="#ffe066"/>
  <circle cx="10" cy="10" r="1.4" fill="#fff9c0"/>
  <!-- stamens -->
  <circle cx="10"   cy="8.0" r="0.6" fill="#e8a000"/>
  <circle cx="11.9" cy="10.9" r="0.6" fill="#e8a000"/>
  <circle cx="8.1"  cy="10.9" r="0.6" fill="#e8a000"/>
</svg>
